<svg xmlns="http://www.w3.org/2000/svg" width="226.364" height="236.542" viewBox="0 0 226.364 236.542">
  <g id="Group_50" data-name="Group 50" transform="translate(-619.285 -190.23)">
    <g id="LhSCKg" transform="translate(619.285 190.23)">
      <g id="Group_39" data-name="Group 39">
        <path id="Path_166" data-name="Path 166" d="M477.54,281.476c0,12,.017,23.274-.008,34.546-.015,7.555-.814,8.443-8.151,8.447q-78.013.039-156.03,0c-6.889,0-8.026-1.186-8.03-8.107q-.031-85.786,0-171.575c0-7.139,1.126-8.211,8.447-8.221q27.348-.028,54.7-.007h7.124V118.947c0-7.678-.03-15.354.009-23.031.036-6.982.958-7.944,8.1-7.947q69.667-.042,139.332-.006c7.65,0,8.61,1,8.612,8.686q.02,78.013.008,156.03c0,7.1-.088,14.2.026,21.3.086,5.3-2.213,7.613-7.633,7.553C508.891,281.368,493.742,281.476,477.54,281.476Zm43.678-10.065c.137-2.726.312-4.6.312-6.477.015-53.52-.056-107.039.122-160.559.017-5.072-1.386-6.475-6.449-6.451-41.051.2-82.1.1-123.153.127-2.013,0-4.028.245-6.455.4,0,13.453.008,26.277,0,39.1-.007,8.367-.707,9.048-9.313,9.051q-26.761.011-53.52,0h-7.006c-.142,2.662-.329,4.535-.329,6.408-.017,51.6.069,103.2-.137,154.8-.021,5.4,1.6,6.711,6.793,6.69,46.229-.183,92.461-.1,138.69-.12,2.045,0,4.088-.187,6.739-.318,0-10.986-.013-21.487,0-31.988.017-10.67.03-10.672,10.455-10.673C492.144,271.409,506.32,271.411,521.218,271.411Z" transform="translate(-305.307 -87.947)" fill="#5bb5f6"/>
      </g>
    </g>
    <g id="Group_40" data-name="Group 40" transform="translate(688.077 265.366)">
      <path id="Path_167" data-name="Path 167" d="M396.237,149.268a12.583,12.583,0,0,1,5.04,3.89,12.434,12.434,0,0,1,2.46,5.555,38.488,38.488,0,0,1,.4,6.387l-.08,27.261H392.467V164.823a9.025,9.025,0,0,0-.793-4.047q-1.51-3.017-5.555-3.016-4.684,0-6.468,3.888a12.2,12.2,0,0,0-.913,4.96V192.36H367.351V166.608a14.453,14.453,0,0,0-.793-5.594q-1.428-3.135-5.594-3.136-4.844,0-6.507,3.136a12.056,12.056,0,0,0-.913,5.317v26.03H342.077V149.19h10.99V155.5a18.163,18.163,0,0,1,3.968-4.8,15.694,15.694,0,0,1,16.546-.357,12.7,12.7,0,0,1,3.731,5.2,14.363,14.363,0,0,1,5.515-5.594,16.808,16.808,0,0,1,7.777-1.787A15.084,15.084,0,0,1,396.237,149.268Z" transform="translate(-342.077 -110.648)" fill="#0c5e96"/>
      <path id="Path_168" data-name="Path 168" d="M380.313,157.522q1.532-3.64,7.229-7.706a53.146,53.146,0,0,0,6.4-5.068,7.5,7.5,0,0,0,2.232-5.222,5.786,5.786,0,0,0-1.28-3.839,4.51,4.51,0,0,0-3.663-1.53q-3.264,0-4.443,2.434a12.109,12.109,0,0,0-.8,4.468h-6.952a17.572,17.572,0,0,1,1.684-7.5q2.862-5.447,10.174-5.446,5.778,0,9.2,3.2a11.058,11.058,0,0,1,3.418,8.471,11.453,11.453,0,0,1-2.415,7.177,23.932,23.932,0,0,1-5.2,4.643l-2.866,2.034q-2.691,1.905-3.682,2.76a8.022,8.022,0,0,0-1.669,1.983h15.886v6.3h-24.92A17.083,17.083,0,0,1,380.313,157.522Z" transform="translate(-310.241 -128.108)" fill="#0c5e96"/>
    </g>
  </g>
</svg>
