<svg id="kHVIkD" xmlns="http://www.w3.org/2000/svg" width="237.458" height="237.45" viewBox="0 0 237.458 237.45">
  <g id="Group_41" data-name="Group 41">
    <path id="Path_169" data-name="Path 169" d="M678.823,148.4a3.678,3.678,0,0,1-1.083-2.874c.036-4.445.124-8.892-.037-13.332a6,6,0,0,1,.022-.819h-8.239a6.312,6.312,0,0,1,.028.866c-.157,4.355-.045,8.722-.052,13.083a3.274,3.274,0,0,1-.606,2.561q-5.161,5.259-10.312,10.527l-.573-.369c0-2.877.045-5.755-.011-8.629-.058-2.95-1.489-4.406-4.436-4.423-7.489-.045-14.978-.03-22.469-.013-3.73.007-5.042,1.345-5.042,5.063,0,12.428-.043,24.857.049,37.285a7.261,7.261,0,0,1-2.4,5.869c-3.9,3.65-7.613,7.512-11.442,11.246-1.6,1.557-2.554,3.291-1.682,5.508.857,2.176,2.726,2.567,4.861,2.565q44.444-.036,88.887-.015c9.053,0,18.106-.017,27.16.024,2.271.011,4.385-.23,5.285-2.679.87-2.363-.4-4.006-2.021-5.626Q706.735,176.34,678.823,148.4Zm-53.4,55.618-.311-.528c2.245-2.155,4.438-4.367,6.752-6.443a7.226,7.226,0,0,0,2.442-5.891c-.084-11.764,0-23.53-.075-35.294-.015-2.052.64-2.758,2.685-2.673,3.368.138,6.752.172,10.116.006,2.251-.11,2.8.761,2.735,2.861-.139,4.191-.023,8.391-.039,12.587a3.948,3.948,0,0,0,2.4,3.961,4.336,4.336,0,0,0,4.646-.619,18.432,18.432,0,0,0,1.624-1.51q6.463-6.452,12.919-12.913c2.286-2.281,2.3-2.282,4.629.049q22.08,22.075,44.147,44.162a5.684,5.684,0,0,1,1.8,2.247Z" transform="translate(-499.576 -50.125)" fill="#0c5e96"/>
    <path id="Path_170" data-name="Path 170" d="M782.2,167.343c.658,0,1.317-.009,1.974,0a3.939,3.939,0,0,0,3.955-2.421,4.105,4.105,0,0,0-.909-4.782q-3.7-3.805-7.469-7.543c-10.073-10.054-20.185-20.071-30.2-30.181a13.81,13.81,0,0,0-6.286-3.644q-37.616-10.695-75.209-21.459-15.539-4.434-31.092-8.829a13.1,13.1,0,0,0-3.643-.533q-18.766.031-37.532.022c-3.923,0-5.188,1.265-5.193,5.156-.011,7.818-.09,15.639.047,23.455.041,2.427-.791,3.065-3.119,3.04-10.37-.1-20.74-.049-31.111-.043-4.041,0-5.325,1.268-5.328,5.295q-.017,18.642,0,37.285c.006,3.852,1.366,5.194,5.2,5.194q15.185,0,30.37-.008c3.9,0,3.927.021,3.927,3.807q0,70.986-.006,141.974c0,2.634-.03,5.268.028,7.9.062,2.812,1.48,4.325,4.256,4.335q19.63.067,39.26.008c2.855-.009,4.228-1.7,4.23-4.894q.008-38.026,0-76.048c0-24.692.028-49.384-.05-74.074-.008-2.395.743-3.064,3.094-3.059C666.992,167.366,765.494,167.342,782.2,167.343ZM756.914,142.8l16.174,16.25c-4.881,0-9.931.007-14.978-.007a1.136,1.136,0,0,1-1.19-1.282C756.906,152.719,756.914,147.68,756.914,142.8Zm-195.851,16.3c-1.278,0-1.762-.584-1.74-1.809.036-1.891.009-3.785.009-5.676V134.367l24.621,24.712C576.333,159.08,568.7,159.07,561.062,159.091Zm29.526-6.687c-8.241-8.2-16.4-16.312-24.709-24.57,7.691,0,15.317.007,22.943-.006,1.254,0,1.779.582,1.766,1.807-.024,2.14,0,4.279,0,6.417Zm39.505,39.169-24.387-24.228c7.36,0,14.922.011,22.482-.013,1.36,0,1.921.561,1.918,1.92C630.081,176.812,630.094,184.372,630.094,191.573Zm-31.255-1.19V174.041c8.193,8.159,16.318,16.249,24.656,24.552q-11.481,0-22.909.009c-1.267,0-1.77-.569-1.751-1.8C598.869,194.662,598.839,192.524,598.839,190.383Zm0-56.025,24.806,24.709c-7.88,0-15.643.007-23.4-.007-1.452,0-1.4-1.1-1.4-2.107q-.006-5.293,0-10.589C598.837,142.377,598.837,138.388,598.837,134.358Zm0,118.739c8.215,8.176,16.376,16.3,24.611,24.49-7.654,0-15.36,0-23.068,0-1.4,0-1.527-.937-1.525-2.013,0-3.293-.015-6.584-.019-9.875C598.835,261.451,598.839,257.2,598.839,253.1Zm.011-16.913c.021-7.553.011-15.105.011-22.234,7.981,7.931,16.08,15.977,24.153,24,.11-.079-.017.094-.144.094-7.474.03-14.948.036-22.422.065C599.086,238.111,598.849,237.324,598.85,236.184ZM622.5,224.557c-5.732-5.749-11.469-11.5-17.119-17.163.037-.494.316-.516.55-.516,7.474-.006,14.948.011,22.423-.013,1.281,0,1.738.554,1.734,1.787-.019,7.145,0,14.292-.007,21.437,0,.382-.058.934-.3,1.108-.533.376-.877-.21-1.2-.529C626.547,228.641,624.532,226.592,622.5,224.557Zm7.588-73-23.714-23.728c6.984,0,14.458.009,21.932-.009,1.235,0,1.8.488,1.792,1.755C630.083,137.056,630.092,144.534,630.092,151.561Zm-16.419-55a1.652,1.652,0,0,1,1.111-.309c4.522-.019,9.044,0,13.566-.015,1.08,0,1.725.357,1.721,1.551-.011,5.066-.006,10.133-.006,15.947-5.667-5.71-10.849-10.93-16.026-16.155C613.763,97.3,613.324,96.95,613.673,96.562Zm-14.209-.092c1.214-.591,1.921.587,2.647,1.308,4.95,4.917,9.85,9.886,14.823,14.778,2.151,2.118,4.441,4.1,6.67,6.142l-.569.864q-11.3,0-22.6.006c-1.581,0-1.6-1.044-1.6-2.178.006-6.073-.015-12.148.021-18.221C598.864,98.241,598.39,96.995,599.464,96.471Zm.977,220.646c-1.791,0-1.6-1.28-1.6-2.423q-.011-10.223.007-20.449c0-.537-.206-1.169.195-1.435,8.129,8.108,16.215,16.172,24.368,24.3C615.819,317.113,608.13,317.109,600.441,317.117Zm29.637-7.366c-7.893-7.815-16-15.839-24.1-23.857,7.392,0,15.012,0,22.632,0,1.031,0,1.47.535,1.469,1.54C630.074,295.13,630.077,302.829,630.077,309.751Zm-.086-38.808c-8.219-8.194-16.346-16.3-24.475-24.4a1.484,1.484,0,0,1,.52-.161c7.326-.011,14.651.026,21.977-.041,1.91-.017,2.107,1,2.1,2.505-.034,6.915-.006,13.828-.028,20.742C630.083,270.09,630.388,270.745,629.991,270.943Zm79.131-132.486v13.8l-24.52-24.4c7.583,0,15.287.007,22.989-.006,1.416,0,1.538.906,1.534,1.983C709.113,132.706,709.122,135.582,709.122,138.457Zm29.844-10.733c4.836-.447,6.679,3.126,9.31,5.762a2.589,2.589,0,0,1,.342,1.641c.023,5.753.013,11.506.013,17.089q-12.244-12.163-24.561-24.389C728.983,127.827,734.012,128.182,738.966,127.724Zm-21.59,6.831c8.213,8.2,16.361,16.329,24.55,24.5-7.53,0-15.16-.013-22.791.011-1.489,0-1.753-.838-1.747-2.069.021-3.456-.007-6.913-.009-10.368C717.375,142.556,717.376,138.478,717.376,134.554ZM638.3,116.528c.155-4.928.047-9.865.047-14.8,0-4.079,0-4.082,4.03-2.93q22.745,6.508,45.489,13.019l25.788,7.379-.084.361h-6.655c-21.869,0-43.736-.026-65.6.065C638.88,119.638,638.231,118.854,638.3,116.528Zm1.8,42.563c-1.259,0-1.757-.552-1.753-1.787.019-7.463.009-14.926.009-21.766,7.8,7.8,15.779,15.785,23.536,23.541C655.033,159.08,647.568,159.07,640.1,159.091Zm29.509-6.889q-12.238-12.193-24.458-24.372c7.4,0,14.961.024,22.522-.021,1.56-.007,1.959.7,1.953,2.112C669.59,137.406,669.611,144.889,669.611,152.2Zm8.275,5.306c.008-7.693,0-15.388,0-22.219l24.082,23.781c-7.392,0-15.014,0-22.636,0C678.3,159.069,677.886,158.5,677.886,157.508Z" transform="translate(-551.072 -87.947)" fill="#5bb5f6"/>
    <path id="Path_171" data-name="Path 171" d="M720.8,186.062c3.27,0,4.511,1.192,4.512,4.378q.011,21.634-.007,43.268c0,3.515-1.117,4.606-4.7,4.608q-50.842.006-101.682,0c-3.672,0-4.718-1.07-4.722-4.8q-.014-21.418-.015-42.836c0-3.456,1.188-4.617,4.722-4.617q25.31,0,50.622,0Q695.158,186.06,720.8,186.062Zm-96.8,7.212c-1.923-.007-2.619.447-2.6,2.518q.146,16.442-.011,32.886c-.015,1.942.636,2.455,2.488,2.441q14.714-.107,29.425.006c1.89.017,2.505-.539,2.484-2.445-.086-8.077-.052-16.155-.028-24.232.009-3.4,1.141-4.509,4.574-4.52q9.412-.034,18.823,0c3.542.013,4.591,1.091,4.6,4.709.019,8.005.054,16.011-.03,24.016-.019,1.88.55,2.49,2.464,2.473q14.711-.126,29.423-.006c1.837.013,2.528-.468,2.511-2.427q-.135-16.549-.021-33.1c.011-1.837-.619-2.318-2.365-2.312-15.362.052-30.724.03-46.084.03C654.428,193.312,639.21,193.34,623.993,193.274Zm38.961,35.8c-.034,1.482.46,2.071,1.987,2.034,3.244-.08,6.492-.073,9.738,0,1.437.03,1.869-.561,1.862-1.929q-.065-10.063,0-20.125c.009-1.381-.445-1.948-1.873-1.92-3.317.067-6.636.058-9.953.006-1.332-.022-1.77.541-1.753,1.813.049,3.39.017,6.78.017,10.17C662.976,222.441,663.029,225.76,662.954,229.077Z" transform="translate(-496.114 -2.504)" fill="#0c5e96"/>
  </g>
</svg>
