<svg xmlns="http://www.w3.org/2000/svg" width="217.913" height="203.916" viewBox="0 0 217.913 203.916">
  <g id="Group_49" data-name="Group 49" transform="translate(-126.952 -225.575)">
    <g id="bjhqDW" transform="translate(275.986 366.052)">
      <g id="Group_42" data-name="Group 42">
        <path id="Path_176" data-name="Path 176" d="M184.927,209.161a24.025,24.025,0,0,0-1.775-5.968,1.05,1.05,0,0,0-1.888-.4l-1.287,1.287q-1.246,1.243-2.492,2.485a1.336,1.336,0,0,0-.365,1.384,18.079,18.079,0,0,1,.907,5.794,24.528,24.528,0,0,1-.619,5.414,24.18,24.18,0,0,1-3.542,8.15,24.758,24.758,0,0,1-5.629,5.929,24.228,24.228,0,0,1-8.374,4.084,24.617,24.617,0,0,1-9.27.649,23.994,23.994,0,0,1-7.946-2.361,24.58,24.58,0,0,1-10.024-9.194,24.3,24.3,0,0,1-3.528-10.984,24.653,24.653,0,0,1,.11-4.664,24.321,24.321,0,0,1,1.867-6.924A24.569,24.569,0,0,1,137.3,195.3a24.243,24.243,0,0,1,14.207-6.06,24.871,24.871,0,0,1,6.733.354,24.24,24.24,0,0,1,9.214,3.893,23.053,23.053,0,0,1,3.375,2.829,1.31,1.31,0,0,0,.935.451h0a1.309,1.309,0,0,0,.922-.438c.79-.8,1.587-1.6,2.382-2.393l.874-.874a1.289,1.289,0,0,0,.49-.949,1.319,1.319,0,0,0-.513-.954,33.921,33.921,0,0,0-4.9-3.983,30.911,30.911,0,0,0-6.61-3.341,31.637,31.637,0,0,0-13.388-1.807,32.07,32.07,0,0,0-7.543,1.523,31.852,31.852,0,0,0-15.743,11.624,31.165,31.165,0,0,0-4.449,8.892,31.656,31.656,0,0,0-1.42,11.274,32.884,32.884,0,0,0,.954,6.245,31.777,31.777,0,0,0,18.157,21.2,32.189,32.189,0,0,0,12.909,2.574c.052,0,.1,0,.161,0,.651,0,1.62-.069,2.342-.131a30.824,30.824,0,0,0,6.672-1.321,31.683,31.683,0,0,0,11.48-6.488,31.1,31.1,0,0,0,3.949-4.191,31.622,31.622,0,0,0,2.948-4.471,31.685,31.685,0,0,0,3.809-14.258A30.92,30.92,0,0,0,184.927,209.161Z" transform="translate(-121.811 -181.925)" fill="#0c5e96"/>
        <path id="Path_177" data-name="Path 177" d="M183.478,189.3a1.144,1.144,0,0,1-.417.853c-2.282,2.281-9.094,9.094-11.375,11.375l-19.949,19.947c-1.485,1.487-2.992,2.954-4.449,4.468a1.284,1.284,0,0,1-2.069-.022c-1.227-1.246-2.47-2.475-3.706-3.714q-2.815-2.82-5.629-5.644-2.638-2.644-5.28-5.289a1.184,1.184,0,0,1,0-1.948q2.009-2.015,4.022-4.022a1.137,1.137,0,0,1,1.755,0c1.166,1.156,2.318,2.324,3.48,3.484q2.486,2.486,4.978,4.969c.408.408.818.814,1.214,1.231.168.178.3.168.46,0q1.928-1.945,3.865-3.882c1.119-1.121,2.241-2.234,3.36-3.353q2.082-2.082,4.159-4.168c1.478-1.478,2.963-2.95,4.441-4.428q2.475-2.475,4.945-4.958,1.751-1.751,3.508-3.493c.636-.634,5.8-5.809,6.44-6.436a1.117,1.117,0,0,1,1.747.024q1.619,1.616,3.235,3.235c.3.3.61.606.913.913A1.154,1.154,0,0,1,183.478,189.3Z" transform="translate(-114.6 -180.238)" fill="#0c5e96"/>
      </g>
    </g>
    <g id="Group_43" data-name="Group 43" transform="translate(126.952 225.575)">
      <path id="Path_178" data-name="Path 178" d="M190.385,238.281q.918-.662,1.873-1.25,0-30.856.05-61.709a6.316,6.316,0,0,0-2.789-5.667q-31.279-23.57-62.4-47.35c-2.094-1.6-3.487-1.583-5.57.009Q90.307,146.2,58.9,169.872a5.729,5.729,0,0,0-2.526,5.141c.086,12.144.041,24.29.041,36.434,0,12.037.086,24.074-.06,36.11-.037,3.115.705,4.342,4.1,4.3q21.6-.264,43.2-.006c3.276.037,4.213-.967,4.178-4.206-.155-14.615.015-29.233-.131-43.848-.032-3.059,1.025-3.858,3.9-3.807q12.732.219,25.47,0c2.935-.054,3.893.848,3.865,3.848-.137,14.722.009,29.446-.12,44.17-.026,2.992.977,3.854,3.884,3.83,11.7-.1,23.407-.067,35.109-.058a30.746,30.746,0,0,1,10.563-13.5Z" transform="translate(-29.781 -94.409)" fill="#5bb5f6"/>
      <path id="Path_179" data-name="Path 179" d="M136.748,128.539c3.055.052,5.31,3.345,7.863,5.27q36.816,27.757,73.529,55.659c1.97,1.5,3.119,1.628,4.621-.524A104.963,104.963,0,0,1,229.9,179.8c1.916-2.185,1.549-3.416-.739-5.048-10.325-7.362-20.5-14.935-30.819-22.31A5.764,5.764,0,0,1,195.6,147.1c.127-10-.009-20,.123-29.99.034-2.569-.58-3.7-3.371-3.6-4.937.181-9.891.174-14.832,0-2.849-.1-3.762.971-3.673,3.759.17,5.334.049,10.677.049,16.108-1.605-.165-2.378-1.13-3.283-1.811-10.4-7.817-20.815-15.6-31.12-23.536-2.09-1.611-3.5-1.573-5.6,0-15.323,11.457-30.74,22.784-46.128,34.153-14.524,10.729-29.008,21.513-43.6,32.142-2.4,1.751-2.659,3.01-.709,5.242a79.356,79.356,0,0,1,6.649,8.707c1.789,2.733,3.181,2.778,5.792.782q36.387-27.791,72.989-55.3C131.427,131.837,133.669,128.486,136.748,128.539Z" transform="translate(-42.151 -106.84)" fill="#5bb5f6"/>
    </g>
  </g>
</svg>
