<svg xmlns="http://www.w3.org/2000/svg" width="50.822" height="41" viewBox="0 0 50.822 41">
  <g id="_6O0SMF" data-name="6O0SMF" transform="translate(-305.31 -1319.519)">
    <g id="Group_48" data-name="Group 48" transform="translate(305.31 1319.519)">
      <path id="Path_182" data-name="Path 182" d="M335.15,1339.783c-6.2-.693-12.4-1.408-18.61-2.062a3.206,3.206,0,0,1-2.823-1.632c-2.576-4.688-5.209-9.345-7.783-14.033-.369-.672-1.057-1.46-.246-2.23.652-.619,1.391-.153,2.073.118q23.278,9.276,46.552,18.564c.729.292,1.744.434,1.815,1.442.076,1.076-.962,1.235-1.683,1.523q-23.38,9.353-46.775,18.668c-.689.275-1.44.686-2.058.013-.64-.7-.085-1.42.256-2.039,2.62-4.758,5.284-9.491,7.9-14.251a3.207,3.207,0,0,1,2.869-1.554c6.186-.653,12.367-1.36,18.55-2.048Z" transform="translate(-305.31 -1319.519)" fill="#1895d1"/>
    </g>
  </g>
</svg>
