<svg xmlns="http://www.w3.org/2000/svg" width="331.717" height="219.296" viewBox="0 0 331.717 219.296">
  <g id="Group_52" data-name="Group 52" transform="translate(-1508.679 -202.489)">
    <path id="Path_173" data-name="Path 173" d="M906.319,153.312l-7.21-6.219q-3.216-2.778-6.428-5.562c-3.558-3.081-10.688-9.223-10.688-9.223l-5.519,6.339s16.422,14.267,24.458,21.19q6.146,5.3,12.284,10.6,13.35,11.551,26.684,23.115,10.31,8.935,20.625,17.867c4.67,4.045,5.317,9.9,1.57,14.236a9.4,9.4,0,0,1-6.795,3.362,11.046,11.046,0,0,1-7.545-2.877q-12.732-11-25.446-22.018L907.718,191.49a18.6,18.6,0,0,0-1.749-1.386c-3.392-2.3-5.491-.924-6.655.63-1.665,2.223-1.33,4.668.913,6.709,2.556,2.322,5.216,4.608,7.79,6.819q1.392,1.2,2.78,2.395,3.985,3.449,7.983,6.883c5.815,5,11.83,10.178,17.671,15.347a9.821,9.821,0,0,1,3.334,9.287,9.374,9.374,0,0,1-6.305,7.006c-3.472,1.19-6.709.419-9.9-2.361q-9.909-8.643-19.874-17.229l-7.9-6.831q-1.243-1.078-2.481-2.161c-1.878-1.643-3.822-3.341-5.779-4.963a5.778,5.778,0,0,0-4.219-1.555,4.415,4.415,0,0,0-3,1.747c-1.789,2.245-1.39,4.685,1.121,6.87q4.9,4.263,9.82,8.5c6.438,5.553,13.094,11.295,19.541,17.051a13.459,13.459,0,0,1,3.9,6.127c.952,3.525-.793,7.1-4.449,9.1-3.308,1.811-6.817,1.368-9.882-1.259q-7.984-6.836-15.927-13.721-5.711-4.936-11.433-9.865c-.23-.2-.462-.413-.7-.632a6.521,6.521,0,0,0-3.021-1.942c-1.457-.251-3.979-.073-5.016,1.1a5.4,5.4,0,0,0-.44,5.169,16.5,16.5,0,0,0,3.876,4.11c.329.279.657.556.977.834q4.88,4.277,9.813,8.494,2.756,2.371,5.506,4.746a9.765,9.765,0,0,1,3.557,6.614,8.484,8.484,0,0,1-2.2,6.249c-3.319,3.811-8.531,4.013-12.673.494-2.217-1.886-4.411-3.8-6.651-5.755l-1.6-1.388c.12-.425-6.224,5.919-6.253,5.88q1.21,1.047,2.421,2.1c2.3,2,4.614,4.007,6.95,5.992a17.329,17.329,0,0,0,28.063-8.851c.133-.5.269-1,.408-1.517l.077-.281c6.933,3.119,12.443,3.706,16.832,1.8,4.569-1.987,8.071-6.763,10.7-14.591,6.372,1.729,12.146,1.061,16.722-1.938,4.522-2.963,7.527-8.123,8.5-14.567,9.628,2.378,17.109-.552,21.661-8.494,4.64-8.092,3.259-15.908-4.1-23.238C966.516,204.939,923.2,167.872,906.319,153.312Z" transform="translate(795.478 140.916)" fill="#5bb5f6"/>
    <g id="Group_51" data-name="Group 51">
      <path id="Path_172" data-name="Path 172" d="M850.677,223.228a35.175,35.175,0,0,1-3.106-3.989c-2.655-4.853-5.4-9.867-11.7-11.661l38.1-73.688c1.719.812,3.426,1.7,5.081,2.552,4.009,2.075,8.157,4.223,12.484,5.313s8.834,1.177,13.6,1.267c.644.011,2.206.026,2.863.041.056-.028,9.265-8,10.6-9.15-6.7.224-12.842.395-19.085.309a23.057,23.057,0,0,1-8.342-1.364,96.272,96.272,0,0,1-9.351-4.773c-1.227-.683-2.46-1.369-3.714-2.041,1.268-8.722-.842-12.84-8.557-16.84l-4.876-2.529c-6.552-3.4-13.328-6.915-20.011-10.335-7.532-3.856-14.9-1.538-18.761,5.9-14.645,28.194-29.221,56.379-43.326,83.772-3.942,7.656-1.6,14.911,6.11,18.931,8.973,4.679,18.035,9.338,25.719,13.28,6.273,3.218,11.051,2.612,16.5-2.088a3.926,3.926,0,0,1,1.47-.814h.008l.823.5A16.244,16.244,0,0,1,837.6,219.2c2.477,3.111,5.607,7.412,7.753,10.733C845.059,229.967,850.5,223.623,850.677,223.228Zm-24.436-15.446c-2.241,4.333-4.047,4.905-8.4,2.679-8.563-4.383-17.034-8.748-25.177-12.971-3.648-1.891-4.363-4.163-2.466-7.835q21.564-41.755,43.167-83.486c1.123-2.168,2.535-3.244,4.279-3.244a6.3,6.3,0,0,1,2.834.788c8.672,4.423,17.637,9,26.482,13.786a9.5,9.5,0,0,1,2.636,2.6c.3.382.61.775.926,1.134-.208.544-.382,1.021-.535,1.45a18.036,18.036,0,0,1-.881,2.168Q847.7,166.327,826.241,207.782Z" transform="translate(727.984 107.989)" fill="#5bb5f6"/>
      <path id="Path_174" data-name="Path 174" d="M1058.458,195.171c-9.42-28.548-19.154-57.913-29.754-89.772-2.653-7.97-9.555-11.4-17.575-8.737q-5.268,1.748-10.531,3.5-7.723,2.571-15.448,5.132c-9.409,3.113-12.12,7.038-11.448,16.711-8.576,4.176-13.345,4.821-22.915,3.154-1.446-.253-2.889-.539-4.331-.823-2.088-.413-4.245-.84-6.389-1.156q-4.824-.713-9.646-1.45c-10.249-1.551-20.845-3.154-31.315-4.35-6.879-.786-13.6,1.405-19.985,6.509-1.336,1.068-2.657,2.157-3.977,3.244-1.506,1.242-19.188,16.258-19.351,16.409-1.678,1.579-3.265,3.07-4.971,4.441-6.743,5.424-9.645,12.224-9.128,21.4.5,8.958.309,18.114.12,26.967q-.053,2.523-.1,5.042c-.118,6.432,3.8,10.834,10.228,11.489,8.3.844,15.165-2.827,20.974-11.235a45.209,45.209,0,0,0,8-22.885,11.243,11.243,0,0,1,4.011-8.385c1.162-.96,3.919-.511,4.939-.428-.075-.037,4.829-5.753,5.439-6.344-2.421-1.772-5.085-3.259-7.454-3.259-2.812,0-5.631,1.246-8.556,3.742-4.161,3.547-6.395,8.194-6.829,14.206a36.887,36.887,0,0,1-7.287,19.614c-3.547,4.782-7.115,6.834-11.526,6.632-2.885-.127-3.39-.69-3.383-3.775l0-1.71c.026-10.456.052-21.268-.172-31.9-.1-4.847,1.295-8.348,4.4-11.018q3.9-3.351,7.792-6.711c7.261-6.258,14.769-12.731,22.224-19.01,4.716-3.972,10.5-5.5,17.191-4.543,10.12,1.45,20.389,3.068,30.321,4.634l6.861,1.08c2.024.318,4.043.675,6.062,1.033,3.14.556,6.385,1.13,9.6,1.542,5.989.76,10.5.316,14.617-1.441a53.29,53.29,0,0,1,5.227-1.807c.733-.225,1.482-.455,2.245-.7l25.4,76.68c-1.137,1.136-2.2,2.23-3.225,3.283-2.223,2.284-4.32,4.443-6.554,6.342-4.675,3.976-10.677,8.3-17.207,13.246l6.853,5.615s14.664-10.06,19.465-16.585a9.266,9.266,0,0,1,2.587-2.084c.372-.238.754-.481,1.13-.741,4.406,6.137,9.644,8.118,16.009,6.047,7.845-2.55,18.189-5.936,28.649-9.512C1057.747,209.771,1061.083,203.13,1058.458,195.171Zm-8.017,6.862c-.625,1.2-2.131,2.088-5.372,3.156q-7,2.31-13.992,4.647-5.848,1.948-11.7,3.89c-4.017,1.328-6,.346-7.324-3.624q-14.773-44.435-29.508-88.884c-1.339-4.039-.369-6.034,3.577-7.362,8.634-2.905,17.429-5.805,25.936-8.61l1.523-.5a15.676,15.676,0,0,1,1.751-.436c.17-.036.324-.065.453-.1,3.093.118,4.275,1.8,5.1,4.3q4.123,12.55,8.3,25.085l7.246,21.837q6.718,20.248,13.424,40.5C1050.9,199.115,1051.068,200.825,1050.442,202.033Z" transform="translate(781.057 109.096)" fill="#0c5e96"/>
      <path id="Path_175" data-name="Path 175" d="M901.6,237.269a15,15,0,0,0,2.279-13.569c-1.745-5.422-6.381-9.686-12.468-11.5,3.888-5.822,4.526-11.334,1.955-16.836s-7.27-8.713-13.987-9.573c-.49-9.263-3.628-15.859-8.853-18.6-4.907-2.572-11.188-1.674-18.181,2.6-3.152-6.045-8.834-9.962-14.939-10.264-5.9-.292-11.452,2.855-15.266,8.658-.311-.38-5.914,7.562-6.114,8.1-2.862,7.742-.515,15.15,6.131,19.336a29.987,29.987,0,0,0,6.462,2.752c.964.327,1.957.664,2.95,1.042a16.105,16.105,0,0,0,4.739,13.412c3.618,3.56,8.279,5.117,13.852,4.621a16.016,16.016,0,0,0,6.165,12.288,16.786,16.786,0,0,0,13,3.418,18.317,18.317,0,0,0,10.729,13.313,15.859,15.859,0,0,0,12.439-.228C892.372,246.766,901.434,237.7,901.6,237.269Zm-69.174-47.137a8.672,8.672,0,0,1-8.335-4.395c-1.532-2.879-1.179-5.121,1.265-7.994,1.123-1.319,2.23-2.653,3.336-3.985q1.316-1.583,2.636-3.158a6.628,6.628,0,0,1,5.166-2.69,7.922,7.922,0,0,1,2.653.5,8.149,8.149,0,0,1,5.609,7.182C844.8,179.042,835.815,189.644,832.423,190.132Zm21.67,15.476c-3.1,3.809-7.674,4.546-11.135,1.79-3.628-2.887-3.985-7.276-.911-11.184,4.572-5.813,9.534-12,15.171-18.917a7.659,7.659,0,0,1,5.955-3.156,7.568,7.568,0,0,1,2.664.507,8.653,8.653,0,0,1,5.568,7.3c-.238.516-.453,1.05-.668,1.583a13.949,13.949,0,0,1-1.712,3.371C864.243,193.094,859.433,199.036,854.094,205.608Zm18.024,16.458a7.215,7.215,0,0,1-8.458,2.239,8.667,8.667,0,0,1-5.394-7.366c.226-.486.43-.99.636-1.493a13.2,13.2,0,0,1,1.631-3.182c3.932-5.049,8.073-10.034,11.959-14.67,3.145-3.749,7.618-4.3,11.135-1.364,3.429,2.862,3.723,7.28.73,10.99C879.712,212.985,875.822,217.7,872.118,222.066ZM883.4,238.717a8.586,8.586,0,0,1-5.5-8.065c.056-.137.12-.307.191-.5a11.407,11.407,0,0,1,1.154-2.438,38.079,38.079,0,0,1,2.881-3.564c.277-.314.554-.629.827-.945a7.146,7.146,0,0,1,4.984-2.81,7.809,7.809,0,0,1,5.472,2.26c3.388,2.922,3.719,6.567.909,9.994q-1.572,1.917-3.175,3.805C888.791,239.211,886.546,239.868,883.4,238.717Z" transform="translate(757.707 164.6)" fill="#0c5e96"/>
    </g>
  </g>
</svg>
